# xmcd
#
# Track frame offsets:
# 182
# 20107
# 40190
# 58507
# 80457
# 93662
# 108947
# 128160
# 141000
# 153920
# 172177
# 184847
# 201952
# 215465
# 228122
# 247295
# 270260
# 289415
# 310422
#
# Disc length: 4312 seconds
#
#
# Revision: 1
# Processed by: cddbd v1.5.1PL0 Copyright (c) Steve Scherf et al.
# Submitted via: FreeRIP 2.30 
#
DISCID=1710d613
DTITLE=Carl Perkins - Live At Gilleys
DYEAR=1999
DGENRE=Rock
TTITLE0=Matchbox
TTITLE1=Boppin The Blues
TTITLE2=Hi-Heel Sneakers
TTITLE3=I Got A Woman
TTITLE4=Turn Around (I'll Be Following You)
TTITLE5=Honey Don't
TTITLE6=C.C. Rider (You're So Bad)
TTITLE7=The Wilderness Of Life
TTITLE8=Miss Understood
TTITLE9=Gone, Gone, Gone
TTITLE10=I Don't See Me In Your Eyes Anymore
TTITLE11=Blue Moon Of Kentucky
TTITLE12=Jambalaya (On The Bayou)
TTITLE13=Dixie Fried
TTITLE14=Wine, Spo-Dee-O-Dee, Drinkin Wine
TTITLE15=Medley
TTITLE16=Blue Suede Shoes
TTITLE17=That's All Right
TTITLE18=Texas Blue Jeans
EXTD=
EXTT0=
EXTT1=
EXTT2=
EXTT3=
EXTT4=
EXTT5=
EXTT6=
EXTT7=
EXTT8=
EXTT9=
EXTT10=
EXTT11=
EXTT12=
EXTT13=
EXTT14=
EXTT15=
EXTT16=
EXTT17=
EXTT18=
PLAYORDER=
